<svg width="32" height="29" viewBox="0 0 32 29" fill="none" xmlns="http://www.w3.org/2000/svg">
<path d="M13.42 22.0448H2.34C1.97 22.0448 1.67 21.7448 1.67 21.3748V3.65481C1.67 3.28481 1.97 2.98481 2.34 2.98481H17.31C17.45 2.80481 17.59 2.63481 17.74 2.47481C18.15 2.03481 18.6 1.64481 19.1 1.31481H2.34C1.05 1.31481 0 2.36481 0 3.65481V21.3748C0 22.6648 1.05 23.7148 2.34 23.7148H13.13L13.63 22.8448L13.41 22.0448H13.42Z" fill="url(#paint0_linear_1_55)"/>
<path d="M11.78 15.9348L11.71 15.6548C11.54 15.6548 11.37 15.6548 11.2 15.6548C9.79 15.6548 8.48 15.4548 7.5 15.1048C7.05 14.9448 6.63 14.7348 6.3 14.4748V16.3548C6.3 17.3248 8.49 18.1048 11.2 18.1048C11.6 18.1048 11.98 18.0848 12.35 18.0548L12.08 17.0448L11.78 15.9248V15.9348Z" fill="url(#paint1_linear_1_55)"/>
<path d="M11.32 13.2248L11.94 12.1448C11.7 12.1548 11.45 12.1648 11.2 12.1648C9.79 12.1648 8.48 11.9648 7.5 11.6148C7.05 11.4548 6.63 11.2448 6.3 10.9848V13.2148C6.3 14.1848 8.49 14.9648 11.2 14.9648C11.31 14.9648 11.42 14.9648 11.52 14.9648L11.23 13.8848C11.17 13.6648 11.2 13.4248 11.32 13.2248Z" fill="url(#paint2_linear_1_55)"/>
<path d="M14.66 7.42482C13.77 7.10482 12.55 6.91482 11.19 6.91482C8.47999 6.91482 6.28999 7.69482 6.28999 8.66482V9.71482C6.28999 10.6848 8.47999 11.4648 11.19 11.4648C11.59 11.4648 11.98 11.4448 12.35 11.4148L13.92 8.69482L14.65 7.42482H14.66Z" fill="url(#paint3_linear_1_55)"/>
<path d="M30.8 5.69482C30.27 3.71482 29 2.05482 27.22 1.03482C25.44 0.00481594 23.38 -0.265184 21.39 0.264816C20.56 0.484816 19.79 0.844816 19.1 1.31482C18.61 1.64482 18.15 2.03482 17.74 2.47482C17.59 2.63482 17.45 2.81482 17.31 2.98482C17.23 3.09482 17.14 3.20482 17.06 3.31482C16.94 3.48482 16.83 3.66482 16.72 3.84482L16.38 4.43482L15.21 6.46482L14.69 7.36482L14.65 7.43482L13.92 8.70482L12.35 11.4248L11.93 12.1548L11.31 13.2348C11.19 13.4348 11.16 13.6748 11.22 13.8948L11.51 14.9748L11.54 15.1048L11.69 15.6748L11.76 15.9548L12.06 17.0748L12.33 18.0848L12.5 18.7248L13.11 21.0148L13.34 21.8548L13.4 22.0648L13.62 22.8648L13.12 23.7348L11.4 26.7248C11.16 27.1448 11.3 27.6748 11.72 27.9148C11.93 28.0348 12.16 28.0548 12.38 28.0048C12.59 27.9448 12.79 27.8048 12.91 27.5948L13.65 26.3048L15.13 23.7348L19.52 22.5548L21.12 22.1248L22.35 21.7948L24.09 21.3248C24.31 21.2648 24.5 21.1148 24.62 20.9148L27.77 15.4348C27.81 15.3848 27.84 15.3248 27.87 15.2648L30.02 11.5248C31.04 9.74482 31.32 7.68482 30.79 5.70482L30.8 5.69482ZM23.3 19.7248L22.39 19.9648L20.72 20.4148H20.67L19.07 20.8548L16.36 21.5848L16.96 20.5448L17.72 19.2248L18.34 18.1548L19.94 17.7248L20.1 17.6848L20.71 17.5248L21.41 17.3348L22.38 17.0748L25.26 16.3048L23.29 19.7248H23.3ZM28.52 10.6548L26.5 14.1748L22.4 15.2748L21.26 15.5848L20.73 15.7248L20.42 15.8048L19.58 16.0248L20.19 14.9648L20.73 14.0348L20.81 13.8948L22.4 11.1348L24.14 8.11482C24.38 7.69482 24.24 7.16482 23.82 6.92482C23.4 6.68482 22.87 6.82482 22.63 7.24482L22.39 7.65482L20.72 10.5548L20.16 11.5248L19.54 12.5948L18.88 13.7448L17.71 15.7748L17.02 16.9748L15.07 20.3548L14.86 20.7148L14.79 20.4548L14.09 17.8348V17.7848L13.64 16.1548L13.46 15.4748L13.44 15.4048L13.28 14.8048L13.22 14.5648L13.01 13.7848L14.13 11.8448L14.64 10.9648L15.87 8.83482L16.08 8.46482L16.89 7.07482L17.05 6.80482L18.26 4.71482C18.26 4.71482 18.31 4.63482 18.34 4.59482C18.72 3.96482 19.21 3.42482 19.78 2.98482C20.36 2.53482 21.01 2.19482 21.73 1.98482C21.78 1.97482 21.82 1.95482 21.87 1.94482C23.4 1.53482 25 1.74482 26.38 2.53482C27.75 3.32482 28.74 4.60482 29.15 6.14482C29.56 7.67482 29.35 9.27482 28.56 10.6548H28.52Z" fill="#0F80CC"/>
<defs>
<linearGradient id="paint0_linear_1_55" x1="9.55" y1="1.31481" x2="9.55" y2="23.7148" gradientUnits="userSpaceOnUse">
<stop stop-color="#97D9F6"/>
<stop offset="0.92" stop-color="#0F80CC"/>
<stop offset="1" stop-color="#0F80CC"/>
</linearGradient>
<linearGradient id="paint1_linear_1_55" x1="9.33" y1="6.91481" x2="9.33" y2="18.1148" gradientUnits="userSpaceOnUse">
<stop stop-color="#97D9F6"/>
<stop offset="0.92" stop-color="#0F80CC"/>
<stop offset="1" stop-color="#0F80CC"/>
</linearGradient>
<linearGradient id="paint2_linear_1_55" x1="9.12" y1="6.91481" x2="9.12" y2="18.1148" gradientUnits="userSpaceOnUse">
<stop stop-color="#97D9F6"/>
<stop offset="0.92" stop-color="#0F80CC"/>
<stop offset="1" stop-color="#0F80CC"/>
</linearGradient>
<linearGradient id="paint3_linear_1_55" x1="10.48" y1="6.91482" x2="10.48" y2="18.1148" gradientUnits="userSpaceOnUse">
<stop stop-color="#97D9F6"/>
<stop offset="0.92" stop-color="#0F80CC"/>
<stop offset="1" stop-color="#0F80CC"/>
</linearGradient>
</defs>
</svg>
