<svg width="20" height="29" viewBox="0 0 20 29" fill="none" xmlns="http://www.w3.org/2000/svg">
<path d="M19.61 5.69482C19.08 3.71482 17.81 2.05482 16.03 1.03482C14.25 0.00481594 12.19 -0.265184 10.2 0.264816C9.37 0.484816 8.6 0.844816 7.91 1.31482C7.42 1.64482 6.96 2.03482 6.55 2.47482C6.4 2.63482 6.26 2.81482 6.12 2.98482C6.04 3.09482 5.95 3.20482 5.87 3.31482C5.75 3.48482 5.64 3.66482 5.53 3.84482L5.19 4.43482L4.02 6.46482L3.5 7.36482L3.46 7.43482L2.73 8.70482L1.16 11.4248L0.74 12.1548L0.12 13.2348C1.11759e-07 13.4348 -0.03 13.6748 0.03 13.8948L0.32 14.9748L0.35 15.1048L0.499999 15.6748L0.57 15.9548L0.87 17.0748L1.14 18.0848L1.31 18.7248L1.92 21.0148L2.15 21.8548L2.21 22.0648L2.43 22.8648L1.93 23.7348L0.209999 26.7248C-0.0300007 27.1448 0.11 27.6748 0.53 27.9148C0.74 28.0348 0.97 28.0548 1.19 28.0048C1.4 27.9448 1.6 27.8048 1.72 27.5948L2.46 26.3048L3.94 23.7348L8.33 22.5548L9.93 22.1248L11.16 21.7948L12.9 21.3248C13.12 21.2648 13.31 21.1148 13.43 20.9148L16.58 15.4348C16.62 15.3848 16.65 15.3248 16.68 15.2648L18.83 11.5248C19.85 9.74482 20.13 7.68482 19.6 5.70482L19.61 5.69482ZM12.11 19.7248L11.2 19.9648L9.53 20.4148H9.48L7.88 20.8548L5.17 21.5848L5.77 20.5448L6.53 19.2248L7.15 18.1548L8.75 17.7248L8.91 17.6848L9.52 17.5248L10.22 17.3348L11.19 17.0748L14.07 16.3048L12.1 19.7248H12.11ZM17.33 10.6548L15.31 14.1748L11.21 15.2748L10.07 15.5848L9.54 15.7248L9.23 15.8048L8.39 16.0248L9 14.9648L9.54 14.0348L9.62 13.8948L11.21 11.1348L12.95 8.11482C13.19 7.69482 13.05 7.16482 12.63 6.92482C12.21 6.68482 11.68 6.82482 11.44 7.24482L11.2 7.65482L9.53 10.5548L8.97 11.5248L8.35 12.5948L7.69 13.7448L6.52 15.7748L5.83 16.9748L3.88 20.3548L3.67 20.7148L3.6 20.4548L2.9 17.8348V17.7848L2.45 16.1548L2.27 15.4748L2.25 15.4048L2.09 14.8048L2.03 14.5648L1.82 13.7848L2.94 11.8448L3.45 10.9648L4.68 8.83482L4.89 8.46482L5.7 7.07482L5.86 6.80482L7.07 4.71482C7.07 4.71482 7.12 4.63482 7.15 4.59482C7.53 3.96482 8.02 3.42482 8.59 2.98482C9.17 2.53482 9.82 2.19482 10.54 1.98482C10.59 1.97482 10.63 1.95482 10.68 1.94482C12.21 1.53482 13.81 1.74482 15.19 2.53482C16.56 3.32482 17.55 4.60482 17.96 6.14482C18.37 7.67482 18.16 9.27482 17.37 10.6548H17.33Z" fill="#0F80CC"/>
</svg>
