<svg width="277" height="44" viewBox="0 0 277 44" fill="none" xmlns="http://www.w3.org/2000/svg">
<path d="M19.61 13.6948C19.08 11.7148 17.81 10.0548 16.03 9.03482C14.25 8.00482 12.19 7.73482 10.2 8.26482C9.37 8.48482 8.6 8.84482 7.91 9.31482C7.42 9.64482 6.96 10.0348 6.55 10.4748C6.4 10.6348 6.26 10.8148 6.12 10.9848C6.04 11.0948 5.95 11.2048 5.87 11.3148C5.75 11.4848 5.64 11.6648 5.53 11.8448L5.19 12.4348L4.02 14.4648L3.5 15.3648L3.46 15.4348L2.73 16.7048L1.16 19.4248L0.74 20.1548L0.12 21.2348C1.11759e-07 21.4348 -0.03 21.6748 0.03 21.8948L0.32 22.9748L0.35 23.1048L0.499999 23.6748L0.57 23.9548L0.87 25.0748L1.14 26.0848L1.31 26.7248L1.92 29.0148L2.15 29.8548L2.21 30.0648L2.43 30.8648L1.93 31.7348L0.209999 34.7248C-0.0300007 35.1448 0.11 35.6748 0.53 35.9148C0.74 36.0348 0.97 36.0548 1.19 36.0048C1.4 35.9448 1.6 35.8048 1.72 35.5948L2.46 34.3048L3.94 31.7348L8.33 30.5548L9.93 30.1248L11.16 29.7948L12.9 29.3248C13.12 29.2648 13.31 29.1148 13.43 28.9148L16.58 23.4348C16.62 23.3848 16.65 23.3248 16.68 23.2648L18.83 19.5248C19.85 17.7448 20.13 15.6848 19.6 13.7048L19.61 13.6948ZM12.11 27.7248L11.2 27.9648L9.53 28.4148H9.48L7.88 28.8548L5.17 29.5848L5.77 28.5448L6.53 27.2248L7.15 26.1548L8.75 25.7248L8.91 25.6848L9.52 25.5248L10.22 25.3348L11.19 25.0748L14.07 24.3048L12.1 27.7248H12.11ZM17.33 18.6548L15.31 22.1748L11.21 23.2748L10.07 23.5848L9.54 23.7248L9.23 23.8048L8.39 24.0248L9 22.9648L9.54 22.0348L9.62 21.8948L11.21 19.1348L12.95 16.1148C13.19 15.6948 13.05 15.1648 12.63 14.9248C12.21 14.6848 11.68 14.8248 11.44 15.2448L11.2 15.6548L9.53 18.5548L8.97 19.5248L8.35 20.5948L7.69 21.7448L6.52 23.7748L5.83 24.9748L3.88 28.3548L3.67 28.7148L3.6 28.4548L2.9 25.8348V25.7848L2.45 24.1548L2.27 23.4748L2.25 23.4048L2.09 22.8048L2.03 22.5648L1.82 21.7848L2.94 19.8448L3.45 18.9648L4.68 16.8348L4.89 16.4648L5.7 15.0748L5.86 14.8048L7.07 12.7148C7.07 12.7148 7.12 12.6348 7.15 12.5948C7.53 11.9648 8.02 11.4248 8.59 10.9848C9.17 10.5348 9.82 10.1948 10.54 9.98482C10.59 9.97482 10.63 9.95482 10.68 9.94482C12.21 9.53482 13.81 9.74482 15.19 10.5348C16.56 11.3248 17.55 12.6048 17.96 14.1448C18.37 15.6748 18.16 17.2748 17.37 18.6548H17.33Z" fill="#0F80CC"/>
<path d="M34.021 29H27.748V27.912L29.346 26.535V17.389L27.442 16.862L28.054 15.638H34.327V16.709L32.712 18.103V27.232L34.633 27.759L34.021 29ZM47.0874 28.983H43.0244V23.645C43.0244 23.135 42.945 22.7723 42.7864 22.557C42.639 22.3417 42.3784 22.234 42.0044 22.234C41.4717 22.234 40.9334 22.387 40.3894 22.693V27.249L41.9194 27.742L41.3074 28.983H35.7314V27.895L37.2444 26.603V23.033L35.7314 22.064V20.976L39.4714 19.48L40.1514 21.384L42.1574 19.769C42.4634 19.6783 42.8204 19.633 43.2284 19.633C44.1237 19.633 44.8377 19.871 45.3704 20.347C45.903 20.8117 46.1694 21.4463 46.1694 22.251V27.266L47.6994 27.742L47.0874 28.983ZM48.8036 23.577L49.4836 22.71H55.6206V23.764L54.9406 24.631H48.8036V23.577ZM71.8844 29H65.2034V27.912L67.1414 26.824L66.1894 24.495H61.0724L60.2564 26.501L62.7554 27.759L62.1434 29H56.5504V27.912L58.4714 26.484L62.6874 16.182L65.9854 15.315L70.7454 26.926L72.4964 27.759L71.8844 29ZM63.6394 18.205L61.6674 23.05H65.6114L63.6394 18.205ZM78.8155 29.153C78.3961 29.153 78.0165 29.051 77.6765 28.847V31.397L80.3285 32.077L79.7165 33.301H73.0185V32.23L74.5315 30.921V23.033L73.0185 22.064V20.976L76.7585 19.48L77.4385 21.384L79.4615 19.769C79.8241 19.6783 80.2378 19.633 80.7025 19.633C81.4278 19.633 82.0795 19.8313 82.6575 20.228C83.2355 20.6133 83.6831 21.1517 84.0005 21.843C84.3291 22.523 84.4935 23.2767 84.4935 24.104C84.4935 24.9993 84.1988 25.838 83.6095 26.62C83.0201 27.402 82.2778 28.0253 81.3825 28.49C80.4985 28.9433 79.6428 29.17 78.8155 29.17V29.153ZM79.5975 22.183C78.9061 22.183 78.2658 22.353 77.6765 22.693V25.277C77.6765 25.7757 77.8578 26.195 78.2205 26.535C78.5945 26.8637 79.1215 27.028 79.8015 27.028C80.7195 27.028 81.1785 26.314 81.1785 24.886C81.1785 24.0927 81.0425 23.4467 80.7705 22.948C80.5098 22.438 80.1188 22.183 79.5975 22.183ZM91.8643 29.153C91.445 29.153 91.0653 29.051 90.7253 28.847V31.397L93.3773 32.077L92.7653 33.301H86.0673V32.23L87.5803 30.921V23.033L86.0673 22.064V20.976L89.8073 19.48L90.4873 21.384L92.5103 19.769C92.873 19.6783 93.2866 19.633 93.7513 19.633C94.4766 19.633 95.1283 19.8313 95.7063 20.228C96.2843 20.6133 96.732 21.1517 97.0493 21.843C97.378 22.523 97.5423 23.2767 97.5423 24.104C97.5423 24.9993 97.2476 25.838 96.6583 26.62C96.069 27.402 95.3266 28.0253 94.4313 28.49C93.5473 28.9433 92.6916 29.17 91.8643 29.17V29.153ZM92.6463 22.183C91.955 22.183 91.3146 22.353 90.7253 22.693V25.277C90.7253 25.7757 90.9066 26.195 91.2693 26.535C91.6433 26.8637 92.1703 27.028 92.8503 27.028C93.7683 27.028 94.2273 26.314 94.2273 24.886C94.2273 24.0927 94.0913 23.4467 93.8193 22.948C93.5586 22.438 93.1676 22.183 92.6463 22.183ZM110.902 26.263C110.902 25.923 110.766 25.6 110.494 25.294C110.234 24.988 109.911 24.7103 109.525 24.461C109.14 24.2003 108.602 23.8717 107.91 23.475C107.06 22.9877 106.38 22.574 105.87 22.234C105.36 21.8827 104.924 21.4747 104.561 21.01C104.199 20.534 104.017 20.0127 104.017 19.446C104.017 18.8793 104.284 18.273 104.816 17.627C105.349 16.9697 106.001 16.42 106.771 15.978C107.553 15.5247 108.267 15.298 108.913 15.298C109.695 15.298 110.608 15.383 111.65 15.553C112.704 15.723 113.475 15.9043 113.962 16.097V19.939H112.058C111.628 19.021 111.135 18.307 110.579 17.797C110.024 17.287 109.446 17.032 108.845 17.032C108.449 17.032 108.137 17.1623 107.91 17.423C107.684 17.6723 107.57 17.9953 107.57 18.392C107.57 18.7547 107.706 19.1003 107.978 19.429C108.25 19.7463 108.585 20.041 108.981 20.313C109.389 20.5737 109.945 20.8967 110.647 21.282C111.475 21.7467 112.138 22.149 112.636 22.489C113.146 22.829 113.577 23.2313 113.928 23.696C114.291 24.1493 114.472 24.6537 114.472 25.209C114.472 25.7757 114.183 26.3877 113.605 27.045C113.039 27.691 112.347 28.2407 111.531 28.694C110.715 29.136 109.967 29.357 109.287 29.357C108.46 29.357 107.485 29.272 106.363 29.102C105.241 28.932 104.431 28.7507 103.932 28.558V24.699H105.819C106.284 25.617 106.828 26.331 107.451 26.841C108.086 27.351 108.726 27.606 109.372 27.606C109.837 27.606 110.205 27.4757 110.477 27.215C110.761 26.9543 110.902 26.637 110.902 26.263ZM133.362 32.23C131.118 33.0687 129.577 33.488 128.738 33.488C128.364 33.488 127.775 33.0687 126.97 32.23C126.166 31.4027 125.248 30.377 124.216 29.153C123.684 29.2777 123.191 29.34 122.737 29.34C121.411 29.34 120.238 29.0567 119.218 28.49C118.21 27.912 117.422 27.113 116.855 26.093C116.3 25.073 116.022 23.917 116.022 22.625C116.022 21.299 116.442 20.075 117.28 18.953C118.119 17.8197 119.162 16.93 120.408 16.284C121.655 15.6267 122.834 15.298 123.944 15.298C125.282 15.298 126.46 15.587 127.48 16.165C128.5 16.743 129.288 17.542 129.843 18.562C130.399 19.582 130.676 20.738 130.676 22.03C130.676 23.3333 130.263 24.5403 129.435 25.651C128.619 26.7617 127.588 27.6513 126.341 28.32C127.282 29 128.155 29.6007 128.959 30.122C129.775 30.6547 130.274 30.921 130.455 30.921H132.75L133.362 32.23ZM119.694 21.809C119.694 22.8063 119.842 23.713 120.136 24.529C120.431 25.345 120.879 25.9967 121.479 26.484C122.091 26.9713 122.839 27.215 123.723 27.215C124.324 27.215 124.874 27.028 125.372 26.654C125.871 26.2687 126.268 25.7417 126.562 25.073C126.857 24.4043 127.004 23.6563 127.004 22.829C127.004 21.8317 126.857 20.925 126.562 20.109C126.268 19.2817 125.814 18.63 125.202 18.154C124.59 17.6667 123.842 17.423 122.958 17.423C122.358 17.423 121.808 17.6157 121.309 18.001C120.811 18.375 120.414 18.8963 120.119 19.565C119.836 20.2337 119.694 20.9817 119.694 21.809ZM143.371 29.017H132.338V27.929L133.936 26.671V17.338L132.032 16.862L132.644 15.638H138.917V16.709L137.302 17.967V27.538H140.957L143.626 23.713L144.697 24.155V29.323L143.371 29.017ZM151.426 29H145.85V27.912L147.363 26.62V22.999L145.85 21.996V20.925L149.301 19.48H150.508V27.266L152.038 27.759L151.426 29ZM148.927 14.346C149.459 14.346 149.89 14.516 150.219 14.856C150.559 15.1847 150.729 15.5927 150.729 16.08C150.729 16.4313 150.604 16.76 150.355 17.066C150.117 17.3607 149.811 17.5987 149.437 17.78C149.074 17.9613 148.723 18.052 148.383 18.052C147.861 18.052 147.425 17.8877 147.074 17.559C146.734 17.219 146.564 16.8053 146.564 16.318C146.564 15.9667 146.683 15.6437 146.921 15.349C147.17 15.043 147.482 14.7993 147.856 14.618C148.23 14.4367 148.587 14.346 148.927 14.346ZM158.873 29.034C158.442 29.1247 157.944 29.17 157.377 29.17C156.232 29.17 155.399 28.9263 154.878 28.439C154.357 27.9403 154.096 27.1753 154.096 26.144V21.571H152.26V20.585L156.051 16.556H157.241V20.313H160.301V21.571H157.241V25.94C157.241 26.6653 157.683 27.028 158.567 27.028C158.805 27.028 159.032 26.9997 159.247 26.943C159.474 26.8863 159.751 26.7787 160.08 26.62L160.59 27.674L158.873 29.034ZM167.056 19.633C168.28 19.633 169.226 20.0977 169.895 21.027C170.575 21.945 170.903 23.2427 170.881 24.92H164.812C164.936 25.5207 165.169 26.0023 165.509 26.365C165.849 26.7163 166.291 26.892 166.835 26.892C167.639 26.892 168.812 26.5463 170.354 25.855L170.864 26.909L168.416 28.881C167.702 29.0737 166.846 29.17 165.849 29.17C164.999 29.17 164.234 28.9773 163.554 28.592C162.874 28.1953 162.341 27.657 161.956 26.977C161.582 26.297 161.395 25.5377 161.395 24.699C161.395 23.7923 161.689 22.9537 162.279 22.183C162.868 21.401 163.605 20.7833 164.489 20.33C165.373 19.8653 166.228 19.633 167.056 19.633ZM166.138 21.758C165.673 21.758 165.322 21.9167 165.084 22.234C164.857 22.54 164.732 23.016 164.71 23.662H167.736C167.668 23.016 167.515 22.54 167.277 22.234C167.039 21.9167 166.659 21.758 166.138 21.758Z" fill="white"/>
<path d="M195.162 29.017H188.889V27.929L190.487 26.671V18.936L186.373 29.017H184.741L180.508 18.783V27.045L182.446 27.776L181.817 29.017H177.295V27.929L178.893 26.671V17.627L176.989 16.862L177.601 15.638H182.718L186.492 24.716L190.181 15.638H195.485V16.709L193.87 17.967V27.283L195.791 27.776L195.162 29.017ZM206.981 29H202.918V27.521L200.997 29.034C200.77 29.1247 200.487 29.17 200.147 29.17C199.025 29.17 198.214 28.898 197.716 28.354C197.217 27.7987 196.968 27.1357 196.968 26.365C196.968 25.923 197.104 25.4867 197.376 25.056C197.648 24.6253 198.033 24.2287 198.532 23.866H202.918V23.798C202.918 23.2087 202.753 22.7723 202.425 22.489C202.107 22.1943 201.682 22.047 201.15 22.047C200.368 22.047 199.274 22.319 197.869 22.863L197.359 21.809L199.705 19.922C200.305 19.7293 201.014 19.633 201.83 19.633C203.167 19.633 204.204 19.9333 204.941 20.534C205.689 21.1347 206.063 22.0073 206.063 23.152V27.164L207.593 27.759L206.981 29ZM201.116 26.62C201.648 26.62 202.249 26.4047 202.918 25.974V25.107H200.249C200.124 25.311 200.062 25.532 200.062 25.77C200.062 26.0307 200.152 26.2403 200.334 26.399C200.526 26.5463 200.787 26.62 201.116 26.62ZM219.76 28.983H215.697V23.645C215.697 23.135 215.618 22.7723 215.459 22.557C215.312 22.3417 215.051 22.234 214.677 22.234C214.145 22.234 213.606 22.387 213.062 22.693V27.249L214.592 27.742L213.98 28.983H208.404V27.895L209.917 26.603V23.033L208.404 22.064V20.976L212.144 19.48L212.824 21.384L214.83 19.769C215.136 19.6783 215.493 19.633 215.901 19.633C216.797 19.633 217.511 19.871 218.043 20.347C218.576 20.8117 218.842 21.4463 218.842 22.251V27.266L220.372 27.742L219.76 28.983ZM226.763 29H221.187V27.912L222.7 26.62V22.999L221.187 21.996V20.925L224.638 19.48H225.845V27.266L227.375 27.759L226.763 29ZM224.264 14.346C224.797 14.346 225.228 14.516 225.556 14.856C225.896 15.1847 226.066 15.5927 226.066 16.08C226.066 16.4313 225.942 16.76 225.692 17.066C225.454 17.3607 225.148 17.5987 224.774 17.78C224.412 17.9613 224.06 18.052 223.72 18.052C223.199 18.052 222.763 17.8877 222.411 17.559C222.071 17.219 221.901 16.8053 221.901 16.318C221.901 15.9667 222.02 15.6437 222.258 15.349C222.508 15.043 222.819 14.7993 223.193 14.618C223.567 14.4367 223.924 14.346 224.264 14.346ZM234.857 13.989C235.288 13.989 235.775 14.0513 236.319 14.176C236.863 14.2893 237.254 14.414 237.492 14.55V17.729H236.302C236.019 17.2077 235.679 16.7997 235.282 16.505C234.885 16.199 234.483 16.046 234.075 16.046C233.701 16.046 233.406 16.2047 233.191 16.522C232.976 16.8393 232.868 17.2983 232.868 17.899V20.313H235.656V21.571H232.868V27.096L235.52 27.759L234.908 29H228.21V27.912L229.723 26.62V21.571H227.972V20.313H229.723V19.055C229.723 18.1597 229.989 17.321 230.522 16.539C231.066 15.757 231.74 15.1393 232.545 14.686C233.35 14.2213 234.12 13.989 234.857 13.989ZM241.812 19.633C243.036 19.633 243.983 20.0977 244.651 21.027C245.331 21.945 245.66 23.2427 245.637 24.92H239.568C239.693 25.5207 239.925 26.0023 240.265 26.365C240.605 26.7163 241.047 26.892 241.591 26.892C242.396 26.892 243.569 26.5463 245.11 25.855L245.62 26.909L243.172 28.881C242.458 29.0737 241.603 29.17 240.605 29.17C239.755 29.17 238.99 28.9773 238.31 28.592C237.63 28.1953 237.098 27.657 236.712 26.977C236.338 26.297 236.151 25.5377 236.151 24.699C236.151 23.7923 236.446 22.9537 237.035 22.183C237.625 21.401 238.361 20.7833 239.245 20.33C240.129 19.8653 240.985 19.633 241.812 19.633ZM240.894 21.758C240.43 21.758 240.078 21.9167 239.84 22.234C239.614 22.54 239.489 23.016 239.466 23.662H242.492C242.424 23.016 242.271 22.54 242.033 22.234C241.795 21.9167 241.416 21.758 240.894 21.758ZM251.996 26.756C251.996 26.5633 251.86 26.3707 251.588 26.178C251.327 25.974 250.891 25.6963 250.279 25.345C249.689 25.005 249.208 24.7103 248.834 24.461C248.46 24.2117 248.137 23.9283 247.865 23.611C247.604 23.2937 247.474 22.9537 247.474 22.591C247.474 22.183 247.672 21.7467 248.069 21.282C248.477 20.8173 248.975 20.4263 249.565 20.109C250.154 19.7917 250.698 19.633 251.197 19.633C251.797 19.633 252.494 19.701 253.288 19.837C254.092 19.9617 254.676 20.1033 255.039 20.262V23.152H253.849C253.565 22.6307 253.214 22.2227 252.795 21.928C252.387 21.6333 251.967 21.486 251.537 21.486C251.344 21.486 251.191 21.5427 251.078 21.656C250.976 21.758 250.925 21.894 250.925 22.064C250.925 22.2793 251.061 22.489 251.333 22.693C251.616 22.897 252.075 23.1803 252.71 23.543C253.288 23.8717 253.758 24.1607 254.121 24.41C254.483 24.648 254.795 24.92 255.056 25.226C255.316 25.532 255.447 25.8607 255.447 26.212C255.447 26.6313 255.237 27.0733 254.818 27.538C254.398 27.9913 253.883 28.3767 253.271 28.694C252.67 29.0113 252.12 29.17 251.622 29.17C250.976 29.17 250.211 29.1077 249.327 28.983C248.454 28.847 247.831 28.6997 247.457 28.541V25.515H248.647C248.975 26.0817 249.378 26.5237 249.854 26.841C250.341 27.1583 250.823 27.317 251.299 27.317C251.503 27.317 251.667 27.266 251.792 27.164C251.928 27.0507 251.996 26.9147 251.996 26.756ZM262.716 29.034C262.285 29.1247 261.786 29.17 261.22 29.17C260.075 29.17 259.242 28.9263 258.721 28.439C258.199 27.9403 257.939 27.1753 257.939 26.144V21.571H256.103V20.585L259.894 16.556H261.084V20.313H264.144V21.571H261.084V25.94C261.084 26.6653 261.526 27.028 262.41 27.028C262.648 27.028 262.874 26.9997 263.09 26.943C263.316 26.8863 263.594 26.7787 263.923 26.62L264.433 27.674L262.716 29.034ZM270.898 19.633C271.76 19.633 272.53 19.8313 273.21 20.228C273.89 20.6133 274.417 21.1517 274.791 21.843C275.177 22.523 275.369 23.2767 275.369 24.104C275.369 24.9993 275.075 25.838 274.485 26.62C273.896 27.402 273.154 28.0253 272.258 28.49C271.374 28.9433 270.519 29.17 269.691 29.17C268.841 29.17 268.076 28.9773 267.396 28.592C266.716 28.1953 266.184 27.657 265.798 26.977C265.424 26.297 265.237 25.5377 265.237 24.699C265.237 23.7923 265.532 22.9537 266.121 22.183C266.711 21.401 267.447 20.7833 268.331 20.33C269.215 19.8653 270.071 19.633 270.898 19.633ZM269.912 21.758C269.504 21.758 269.187 21.9393 268.96 22.302C268.745 22.6533 268.637 23.1803 268.637 23.883C268.637 24.801 268.813 25.5603 269.164 26.161C269.527 26.7503 270.031 27.045 270.677 27.045C271.097 27.045 271.414 26.8637 271.629 26.501C271.856 26.1383 271.969 25.6057 271.969 24.903C271.969 23.985 271.788 23.2313 271.425 22.642C271.074 22.0527 270.57 21.758 269.912 21.758Z" fill="#97D9F6"/>
</svg>
