<?xml version="1.0" encoding="UTF-8"?><svg id="Layer_1" xmlns="http://www.w3.org/2000/svg" xmlns:xlink="http://www.w3.org/1999/xlink" viewBox="0 0 180 30"><defs><style>.cls-1{fill:url(#linear-gradient-4);}.cls-2{fill:url(#linear-gradient-3);}.cls-3{fill:url(#linear-gradient-2);}.cls-4{fill:url(#linear-gradient);}.cls-5{fill:#fff;}.cls-6{fill:#0f80cc;}</style><linearGradient id="linear-gradient" x1="10.59" y1="2.31" x2="10.59" y2="24.71" gradientUnits="userSpaceOnUse"><stop offset="0" stop-color="#97d9f6"/><stop offset=".92" stop-color="#0f80cc"/><stop offset="1" stop-color="#0f80cc"/></linearGradient><linearGradient id="linear-gradient-2" x1="10.37" y1="7.91" x2="10.37" y2="19.11" xlink:href="#linear-gradient"/><linearGradient id="linear-gradient-3" x1="10.16" y1="7.91" x2="10.16" y2="19.11" xlink:href="#linear-gradient"/><linearGradient id="linear-gradient-4" x1="11.52" y1="7.91" x2="11.52" y2="19.11" xlink:href="#linear-gradient"/></defs><path class="cls-4" d="M14.46,23.04H3.38c-.37,0-.67-.3-.67-.67V4.65c0-.37.3-.67.67-.67h14.97c.14-.18.28-.35.43-.51.41-.44.86-.83,1.36-1.16H3.38c-1.29,0-2.34,1.05-2.34,2.34v17.72c0,1.29,1.05,2.34,2.34,2.34h10.79l.5-.87-.22-.8Z"/><path class="cls-3" d="M12.82,16.93l-.07-.28c-.17,0-.34,0-.51,0-1.41,0-2.72-.2-3.7-.55-.45-.16-.87-.37-1.2-.63v1.88c0,.97,2.19,1.75,4.9,1.75.4,0,.78-.02,1.15-.05l-.27-1.01-.3-1.12Z"/><path class="cls-2" d="M12.36,14.22l.62-1.08c-.24.01-.49.02-.74.02-1.41,0-2.72-.2-3.7-.55-.45-.16-.87-.37-1.2-.63v2.23c0,.97,2.19,1.75,4.9,1.75.11,0,.22,0,.32,0l-.29-1.08c-.06-.22-.03-.46.09-.66Z"/><path class="cls-1" d="M15.7,8.42c-.89-.32-2.11-.51-3.47-.51-2.71,0-4.9.78-4.9,1.75v1.05c0,.97,2.19,1.75,4.9,1.75.4,0,.79-.02,1.16-.05l1.57-2.72.73-1.27Z"/><path class="cls-6" d="M31.84,6.69c-.53-1.98-1.8-3.64-3.58-4.66-1.78-1.03-3.84-1.3-5.83-.77-.83.22-1.6.58-2.29,1.05-.49.33-.95.72-1.36,1.16-.15.16-.29.34-.43.51-.08.11-.17.22-.25.33-.12.17-.23.35-.34.53l-.34.59-1.17,2.03-.52.9-.04.07-.73,1.27-1.57,2.72-.42.73-.62,1.08c-.12.2-.15.44-.09.66l.29,1.08.03.13.15.57.07.28.3,1.12.27,1.01.17.64.61,2.29.23.84.06.21.22.8-.5.87-1.72,2.99c-.24.42-.1.95.32,1.19.21.12.44.14.66.09.21-.06.41-.2.53-.41l.74-1.29,1.48-2.57,4.39-1.18,1.6-.43,1.23-.33,1.74-.47c.22-.06.41-.21.53-.41l3.15-5.48c.04-.05.07-.11.1-.17l2.15-3.74c1.02-1.78,1.3-3.84.77-5.82ZM24.34,20.72l-.91.24-1.67.45h-.05s-1.6.44-1.6.44l-2.71.73.6-1.04.76-1.32.62-1.07h0s1.6-.43,1.6-.43l.16-.04.61-.16.7-.19.97-.26,2.88-.77-1.97,3.42ZM29.56,11.65s0,0,0,0l-2.02,3.52-4.1,1.1-1.14.31-.53.14-.31.08-.84.22.61-1.06.54-.93.08-.14,1.59-2.76,1.74-3.02c.24-.42.1-.95-.32-1.19-.42-.24-.95-.1-1.19.32l-.24.41-1.67,2.9-.56.97-.62,1.07-.66,1.15-1.17,2.03-.69,1.2s0,0,0,0l-1.95,3.38-.21.36-.07-.26-.7-2.62v-.05s-.45-1.63-.45-1.63l-.18-.68-.02-.07-.16-.6-.06-.24-.21-.78,1.12-1.94.51-.88,1.23-2.13.21-.37.81-1.39.16-.27,1.21-2.09s.05-.08.08-.12c.38-.63.87-1.17,1.44-1.61.58-.45,1.23-.79,1.95-1,.05-.01.09-.03.14-.04,1.53-.41,3.13-.2,4.51.59,1.37.79,2.36,2.07,2.77,3.61.41,1.53.2,3.13-.59,4.51Z"/><path class="cls-5" d="M36.76,8.69c0-.46.3-.77.77-.77h.77c.46,0,.77.3.77.77v9.65c0,.46-.3.77-.77.77h-.77c-.46,0-.77-.3-.77-.77v-9.65Z"/><path class="cls-5" d="M41.26,11.53c0-.46.3-.77.77-.77h.38c.46,0,.79.16.83.61l.02.11c.67-.63,1.46-.93,2.2-.93,1.72,0,2.68,1.04,2.68,2.85v4.94c0,.46-.3.77-.77.77h-.71c-.46,0-.77-.3-.77-.77v-4.68c0-.9-.27-1.22-.91-1.22-.55,0-.99.24-1.48.72v5.18c0,.46-.3.77-.77.77h-.71c-.46,0-.77-.3-.77-.77v-6.81Z"/><path class="cls-5" d="M50.16,14.83v-.24c0-.46.3-.77.77-.77h4.14c.46,0,.77.3.77.77v.24c0,.46-.3.77-.77.77h-4.14c-.46,0-.77-.3-.77-.77Z"/><path class="cls-5" d="M59.89,9.68c.27-1.06,1.06-1.97,2.4-1.97s2.12.95,2.39,1.97l2.26,8.58c.11.43-.13.85-.63.85h-.77c-.46,0-.79-.32-.9-.77l-.53-2.1h-3.66l-.51,2.08c-.13.51-.4.79-.87.79h-.82c-.5,0-.72-.43-.61-.87l2.23-8.56ZM63.66,14.35l-1.09-4.39c-.03-.16-.13-.27-.27-.27-.16,0-.24.11-.27.27l-1.09,4.39h2.73Z"/><path class="cls-5" d="M68.63,11.53c0-.46.3-.77.77-.77h.4c.46,0,.79.18.83.58l.02.11c.66-.63,1.28-.9,2.02-.9,1.89,0,3.06,1.27,3.06,3.48v1.81c0,2.2-1.17,3.48-3.06,3.48-.64,0-1.2-.24-1.8-.72v2.97c0,.46-.3.77-.77.77h-.71c-.46,0-.77-.3-.77-.77v-10.04ZM72.3,17.43c.85,0,1.15-.56,1.15-1.84v-1.3c0-1.28-.3-1.84-1.15-1.84-.54,0-.95.29-1.43.74v3.54c.48.4.88.71,1.43.71Z"/><path class="cls-5" d="M77.45,11.53c0-.46.3-.77.77-.77h.4c.46,0,.79.18.83.58l.02.11c.66-.63,1.28-.9,2.02-.9,1.89,0,3.06,1.27,3.06,3.48v1.81c0,2.2-1.17,3.48-3.06,3.48-.64,0-1.2-.24-1.8-.72v2.97c0,.46-.3.77-.77.77h-.71c-.46,0-.77-.3-.77-.77v-10.04ZM81.12,17.43c.85,0,1.15-.56,1.15-1.84v-1.3c0-1.28-.3-1.84-1.15-1.84-.54,0-.95.29-1.43.74v3.54c.48.4.88.71,1.43.71Z"/><path class="cls-5" d="M89.52,17.94l.1-.42c.11-.5.46-.63.9-.5.3.08,1.15.37,2.16.37,1.09,0,1.54-.58,1.54-1.35,0-2.18-4.63-1.36-4.63-5.19,0-1.99,1.67-3.14,3.86-3.14,1.03,0,1.73.22,2.13.35.43.14.67.5.51.98l-.11.35c-.14.43-.51.63-.98.48-.37-.11-.87-.24-1.55-.24-.96,0-1.44.48-1.44,1.22,0,1.88,4.63,1.39,4.63,5.19,0,1.97-1.6,3.27-3.96,3.27-1.11,0-1.97-.24-2.6-.43-.46-.14-.67-.43-.56-.95Z"/><path class="cls-5" d="M98.06,12.49c0-2.76,1.65-4.78,4.5-4.78s4.5,2.02,4.5,4.78v2.05c0,1.91-.79,3.45-2.2,4.23l.72,1.96c.16.43.03.82-.4.96l-.51.18c-.43.14-.83-.06-.99-.48l-.79-2.08c-.11.02-.22.02-.34.02-2.85,0-4.5-2.02-4.5-4.78v-2.05ZM104.7,14.36v-1.7c0-1.62-.43-3.03-2.13-3.03s-2.13,1.41-2.13,3.03v1.7c0,1.64.45,3.03,2.13,3.03s2.13-1.39,2.13-3.03Z"/><path class="cls-5" d="M109.13,8.69c0-.46.3-.77.77-.77h.77c.46,0,.77.3.77.77v8.5h3.98c.46,0,.77.3.77.77v.38c0,.46-.3.77-.77.77h-5.51c-.46,0-.77-.3-.77-.77v-9.65Z"/><path class="cls-5" d="M117.51,8.42c0-.69.54-1.22,1.27-1.22s1.27.53,1.27,1.22-.54,1.22-1.27,1.22-1.27-.53-1.27-1.22ZM117.66,11.53c0-.46.3-.77.77-.77h.71c.46,0,.77.3.77.77v6.81c0,.46-.3.77-.77.77h-.71c-.46,0-.77-.3-.77-.77v-6.81Z"/><path class="cls-5" d="M122.39,12.36l-.56-.08c-.55-.08-.77-.21-.77-.67v-.22c0-.46.3-.63.77-.63h.56v-1.78c0-.46.3-.77.77-.77h.71c.46,0,.77.3.77.77v1.78h1.11c.46,0,.77.21.77.67v.26c0,.46-.3.67-.77.67h-1.11v4.12c0,.63.3.95.87.95.21,0,.38-.02.58-.05.42-.08.71.02.8.48l.1.48c.1.45-.14.79-.61.88-.24.05-.63.1-.99.1-1.97,0-2.98-.99-2.98-2.6v-4.36Z"/><path class="cls-5" d="M127.98,14.08c0-1.83,1.27-3.53,3.53-3.53s3.54,1.78,3.54,3.53v1.15c0,.24-.19.42-.42.42h-4.41v.13c0,.69.14,1.65,1.56,1.65.75,0,1.33-.14,1.62-.21.48-.11.83.02.96.51l.08.3c.11.43-.06.8-.53.95-.32.1-1.19.34-2.12.34-2.73,0-3.82-1.76-3.82-3.54v-1.7ZM132.81,14.11v-.21c0-.74-.29-1.46-1.28-1.46s-1.3.74-1.3,1.46v.21h2.58Z"/><path class="cls-6" d="M140.08,11.85c0-2.66,1.62-4.14,4.17-4.14,1.12,0,1.86.13,2.47.27.54.14.71.43.59.93l-.08.38c-.1.43-.48.64-.93.53-.42-.08-.88-.19-1.73-.19-1.31,0-2.12.56-2.12,2.39v2.98c0,1.83.8,2.39,2.12,2.39.71,0,1.12-.1,1.6-.22v-2.97c0-.47.24-.79.71-.82l.85-.06c.46-.03.69.26.69.72v3.82c0,.46-.35.87-.79.98-.71.18-1.91.48-3.38.48-2.55,0-4.17-1.46-4.17-4.14v-3.33Z"/><path class="cls-6" d="M150.28,11.53c0-.46.3-.77.77-.77h.71c.46,0,.77.3.77.77v4.68c0,.9.27,1.22.91,1.22.54,0,.99-.24,1.47-.72v-5.18c0-.46.3-.77.77-.77h.71c.46,0,.77.3.77.77v6.81c0,.46-.3.77-.77.77h-.35c-.53,0-.82-.11-.87-.58l-.02-.14c-.67.63-1.46.93-2.2.93-1.72,0-2.68-1.04-2.68-2.85v-4.94Z"/><path class="cls-6" d="M158.97,8.42c0-.69.54-1.22,1.27-1.22s1.27.53,1.27,1.22-.54,1.22-1.27,1.22-1.27-.53-1.27-1.22ZM159.11,11.53c0-.46.3-.77.77-.77h.71c.46,0,.77.3.77.77v6.81c0,.46-.3.77-.77.77h-.71c-.46,0-.77-.3-.77-.77v-6.81Z"/><path class="cls-6" d="M163.07,14.03c0-2.21,1.17-3.48,3.06-3.48.64,0,1.2.19,1.8.71v-3.01c0-.46.3-.77.77-.77h.71c.46,0,.77.3.77.77v10.1c0,.46-.26.77-.72.77h-.5c-.46,0-.74-.1-.79-.56l-.02-.13c-.67.63-1.28.9-2.02.9-1.89,0-3.06-1.28-3.06-3.48v-1.81ZM167.93,16.72v-3.56c-.38-.38-.87-.72-1.43-.72-.85,0-1.15.56-1.15,1.84v1.3c0,1.28.3,1.84,1.15,1.84.54,0,.96-.29,1.43-.71Z"/><path class="cls-6" d="M171.89,14.08c0-1.83,1.27-3.53,3.53-3.53s3.54,1.78,3.54,3.53v1.15c0,.24-.19.42-.42.42h-4.41v.13c0,.69.14,1.65,1.56,1.65.75,0,1.33-.14,1.62-.21.48-.11.83.02.96.51l.08.3c.11.43-.06.8-.53.95-.32.1-1.19.34-2.12.34-2.73,0-3.82-1.76-3.82-3.54v-1.7ZM176.72,14.11v-.21c0-.74-.29-1.46-1.28-1.46s-1.3.74-1.3,1.46v.21h2.58Z"/></svg>