<svg width="180" height="30" viewBox="0 0 180 30" fill="none" xmlns="http://www.w3.org/2000/svg">
<path d="M14.46 23.04H3.38C3.01 23.04 2.71 22.74 2.71 22.37V4.65C2.71 4.28 3.01 3.98 3.38 3.98H18.35C18.49 3.8 18.63 3.63 18.78 3.47C19.19 3.03 19.64 2.64 20.14 2.31H3.38C2.09 2.31 1.04 3.36 1.04 4.65V22.37C1.04 23.66 2.09 24.71 3.38 24.71H14.17L14.67 23.84L14.45 23.04H14.46Z" fill="url(#paint0_linear_1_25)"/>
<path d="M12.82 16.93L12.75 16.65C12.58 16.65 12.41 16.65 12.24 16.65C10.83 16.65 9.52 16.45 8.54 16.1C8.09 15.94 7.67 15.73 7.34 15.47V17.35C7.34 18.32 9.53 19.1 12.24 19.1C12.64 19.1 13.02 19.08 13.39 19.05L13.12 18.04L12.82 16.92V16.93Z" fill="url(#paint1_linear_1_25)"/>
<path d="M12.36 14.22L12.98 13.14C12.74 13.15 12.49 13.16 12.24 13.16C10.83 13.16 9.52 12.96 8.54 12.61C8.09 12.45 7.67 12.24 7.34 11.98V14.21C7.34 15.18 9.53 15.96 12.24 15.96C12.35 15.96 12.46 15.96 12.56 15.96L12.27 14.88C12.21 14.66 12.24 14.42 12.36 14.22Z" fill="url(#paint2_linear_1_25)"/>
<path d="M15.7 8.42C14.81 8.1 13.59 7.91 12.23 7.91C9.52 7.91 7.33 8.69 7.33 9.66V10.71C7.33 11.68 9.52 12.46 12.23 12.46C12.63 12.46 13.02 12.44 13.39 12.41L14.96 9.69L15.69 8.42H15.7Z" fill="url(#paint3_linear_1_25)"/>
<path d="M31.84 6.69C31.31 4.71 30.04 3.05 28.26 2.03C26.48 1 24.42 0.730002 22.43 1.26C21.6 1.48 20.83 1.84 20.14 2.31C19.65 2.64 19.19 3.03 18.78 3.47C18.63 3.63 18.49 3.81 18.35 3.98C18.27 4.09 18.18 4.2 18.1 4.31C17.98 4.48 17.87 4.66 17.76 4.84L17.42 5.43L16.25 7.46L15.73 8.36L15.69 8.43L14.96 9.7L13.39 12.42L12.97 13.15L12.35 14.23C12.23 14.43 12.2 14.67 12.26 14.89L12.55 15.97L12.58 16.1L12.73 16.67L12.8 16.95L13.1 18.07L13.37 19.08L13.54 19.72L14.15 22.01L14.38 22.85L14.44 23.06L14.66 23.86L14.16 24.73L12.44 27.72C12.2 28.14 12.34 28.67 12.76 28.91C12.97 29.03 13.2 29.05 13.42 29C13.63 28.94 13.83 28.8 13.95 28.59L14.69 27.3L16.17 24.73L20.56 23.55L22.16 23.12L23.39 22.79L25.13 22.32C25.35 22.26 25.54 22.11 25.66 21.91L28.81 16.43C28.85 16.38 28.88 16.32 28.91 16.26L31.06 12.52C32.08 10.74 32.36 8.68 31.83 6.7L31.84 6.69ZM24.34 20.72L23.43 20.96L21.76 21.41H21.71L20.11 21.85L17.4 22.58L18 21.54L18.76 20.22L19.38 19.15L20.98 18.72L21.14 18.68L21.75 18.52L22.45 18.33L23.42 18.07L26.3 17.3L24.33 20.72H24.34ZM29.56 11.65L27.54 15.17L23.44 16.27L22.3 16.58L21.77 16.72L21.46 16.8L20.62 17.02L21.23 15.96L21.77 15.03L21.85 14.89L23.44 12.13L25.18 9.11C25.42 8.69 25.28 8.16 24.86 7.92C24.44 7.68 23.91 7.82 23.67 8.24L23.43 8.65L21.76 11.55L21.2 12.52L20.58 13.59L19.92 14.74L18.75 16.77L18.06 17.97L16.11 21.35L15.9 21.71L15.83 21.45L15.13 18.83V18.78L14.68 17.15L14.5 16.47L14.48 16.4L14.32 15.8L14.26 15.56L14.05 14.78L15.17 12.84L15.68 11.96L16.91 9.83L17.12 9.46L17.93 8.07L18.09 7.8L19.3 5.71C19.3 5.71 19.35 5.63 19.38 5.59C19.76 4.96 20.25 4.42 20.82 3.98C21.4 3.53 22.05 3.19 22.77 2.98C22.82 2.97 22.86 2.95 22.91 2.94C24.44 2.53 26.04 2.74 27.42 3.53C28.79 4.32 29.78 5.6 30.19 7.14C30.6 8.67 30.39 10.27 29.6 11.65H29.56Z" fill="#0F80CC"/>
<path d="M36.76 8.69C36.76 8.23 37.06 7.92 37.53 7.92H38.3C38.76 7.92 39.07 8.22 39.07 8.69V18.34C39.07 18.8 38.77 19.11 38.3 19.11H37.53C37.07 19.11 36.76 18.81 36.76 18.34V8.69Z" fill="#3A3A3A"/>
<path d="M41.26 11.53C41.26 11.07 41.56 10.76 42.03 10.76H42.41C42.87 10.76 43.2 10.92 43.24 11.37L43.26 11.48C43.93 10.85 44.72 10.55 45.46 10.55C47.18 10.55 48.14 11.59 48.14 13.4V18.34C48.14 18.8 47.84 19.11 47.37 19.11H46.66C46.2 19.11 45.89 18.81 45.89 18.34V13.66C45.89 12.76 45.62 12.44 44.98 12.44C44.43 12.44 43.99 12.68 43.5 13.16V18.34C43.5 18.8 43.2 19.11 42.73 19.11H42.02C41.56 19.11 41.25 18.81 41.25 18.34V11.53H41.26Z" fill="#3A3A3A"/>
<path d="M50.16 14.83V14.59C50.16 14.13 50.46 13.82 50.93 13.82H55.07C55.53 13.82 55.84 14.12 55.84 14.59V14.83C55.84 15.29 55.54 15.6 55.07 15.6H50.93C50.47 15.6 50.16 15.3 50.16 14.83Z" fill="#3A3A3A"/>
<path d="M59.89 9.68C60.16 8.62 60.95 7.71 62.29 7.71C63.63 7.71 64.41 8.66 64.68 9.68L66.94 18.26C67.05 18.69 66.81 19.11 66.31 19.11H65.54C65.08 19.11 64.75 18.79 64.64 18.34L64.11 16.24H60.45L59.94 18.32C59.81 18.83 59.54 19.11 59.07 19.11H58.25C57.75 19.11 57.53 18.68 57.64 18.24L59.87 9.68H59.89ZM63.66 14.35L62.57 9.96C62.54 9.8 62.44 9.69 62.3 9.69C62.14 9.69 62.06 9.8 62.03 9.96L60.94 14.35H63.67H63.66Z" fill="#3A3A3A"/>
<path d="M68.63 11.53C68.63 11.07 68.93 10.76 69.4 10.76H69.8C70.26 10.76 70.59 10.94 70.63 11.34L70.65 11.45C71.31 10.82 71.93 10.55 72.67 10.55C74.56 10.55 75.73 11.82 75.73 14.03V15.84C75.73 18.04 74.56 19.32 72.67 19.32C72.03 19.32 71.47 19.08 70.87 18.6V21.57C70.87 22.03 70.57 22.34 70.1 22.34H69.39C68.93 22.34 68.62 22.04 68.62 21.57V11.53H68.63ZM72.3 17.43C73.15 17.43 73.45 16.87 73.45 15.59V14.29C73.45 13.01 73.15 12.45 72.3 12.45C71.76 12.45 71.35 12.74 70.87 13.19V16.73C71.35 17.13 71.75 17.44 72.3 17.44V17.43Z" fill="#3A3A3A"/>
<path d="M77.45 11.53C77.45 11.07 77.75 10.76 78.22 10.76H78.62C79.08 10.76 79.41 10.94 79.45 11.34L79.47 11.45C80.13 10.82 80.75 10.55 81.49 10.55C83.38 10.55 84.55 11.82 84.55 14.03V15.84C84.55 18.04 83.38 19.32 81.49 19.32C80.85 19.32 80.29 19.08 79.69 18.6V21.57C79.69 22.03 79.39 22.34 78.92 22.34H78.21C77.75 22.34 77.44 22.04 77.44 21.57V11.53H77.45ZM81.12 17.43C81.97 17.43 82.27 16.87 82.27 15.59V14.29C82.27 13.01 81.97 12.45 81.12 12.45C80.58 12.45 80.17 12.74 79.69 13.19V16.73C80.17 17.13 80.57 17.44 81.12 17.44V17.43Z" fill="#3A3A3A"/>
<path d="M89.52 17.94L89.62 17.52C89.73 17.02 90.08 16.89 90.52 17.02C90.82 17.1 91.67 17.39 92.68 17.39C93.77 17.39 94.22 16.81 94.22 16.04C94.22 13.86 89.59 14.68 89.59 10.85C89.59 8.86 91.26 7.71 93.45 7.71C94.48 7.71 95.18 7.93 95.58 8.06C96.01 8.2 96.25 8.56 96.09 9.04L95.98 9.39C95.84 9.82 95.47 10.02 95 9.87C94.63 9.76 94.13 9.63 93.45 9.63C92.49 9.63 92.01 10.11 92.01 10.85C92.01 12.73 96.64 12.24 96.64 16.04C96.64 18.01 95.04 19.31 92.68 19.31C91.57 19.31 90.71 19.07 90.08 18.88C89.62 18.74 89.41 18.45 89.52 17.93V17.94Z" fill="#3A3A3A"/>
<path d="M98.06 12.49C98.06 9.73 99.71 7.71 102.56 7.71C105.41 7.71 107.06 9.73 107.06 12.49V14.54C107.06 16.45 106.27 17.99 104.86 18.77L105.58 20.73C105.74 21.16 105.61 21.55 105.18 21.69L104.67 21.87C104.24 22.01 103.84 21.81 103.68 21.39L102.89 19.31C102.78 19.33 102.67 19.33 102.55 19.33C99.7 19.33 98.05 17.31 98.05 14.55V12.5L98.06 12.49ZM104.7 14.36V12.66C104.7 11.04 104.27 9.63 102.57 9.63C100.87 9.63 100.44 11.04 100.44 12.66V14.36C100.44 16 100.89 17.39 102.57 17.39C104.25 17.39 104.7 16 104.7 14.36Z" fill="#3A3A3A"/>
<path d="M109.13 8.69C109.13 8.23 109.43 7.92 109.9 7.92H110.67C111.13 7.92 111.44 8.22 111.44 8.69V17.19H115.42C115.88 17.19 116.19 17.49 116.19 17.96V18.34C116.19 18.8 115.89 19.11 115.42 19.11H109.91C109.45 19.11 109.14 18.81 109.14 18.34V8.69H109.13Z" fill="#3A3A3A"/>
<path d="M117.51 8.42C117.51 7.73 118.05 7.2 118.78 7.2C119.51 7.2 120.05 7.73 120.05 8.42C120.05 9.11 119.51 9.64 118.78 9.64C118.05 9.64 117.51 9.11 117.51 8.42ZM117.66 11.53C117.66 11.07 117.96 10.76 118.43 10.76H119.14C119.6 10.76 119.91 11.06 119.91 11.53V18.34C119.91 18.8 119.61 19.11 119.14 19.11H118.43C117.97 19.11 117.66 18.81 117.66 18.34V11.53Z" fill="#3A3A3A"/>
<path d="M122.39 12.36L121.83 12.28C121.28 12.2 121.06 12.07 121.06 11.61V11.39C121.06 10.93 121.36 10.76 121.83 10.76H122.39V8.98C122.39 8.52 122.69 8.21 123.16 8.21H123.87C124.33 8.21 124.64 8.51 124.64 8.98V10.76H125.75C126.21 10.76 126.52 10.97 126.52 11.43V11.69C126.52 12.15 126.22 12.36 125.75 12.36H124.64V16.48C124.64 17.11 124.94 17.43 125.51 17.43C125.72 17.43 125.89 17.41 126.09 17.38C126.51 17.3 126.8 17.4 126.89 17.86L126.99 18.34C127.09 18.79 126.85 19.13 126.38 19.22C126.14 19.27 125.75 19.32 125.39 19.32C123.42 19.32 122.41 18.33 122.41 16.72V12.36H122.39Z" fill="#3A3A3A"/>
<path d="M127.98 14.08C127.98 12.25 129.25 10.55 131.51 10.55C133.77 10.55 135.05 12.33 135.05 14.08V15.23C135.05 15.47 134.86 15.65 134.63 15.65H130.22V15.78C130.22 16.47 130.36 17.43 131.78 17.43C132.53 17.43 133.11 17.29 133.4 17.22C133.88 17.11 134.23 17.24 134.36 17.73L134.44 18.03C134.55 18.46 134.38 18.83 133.91 18.98C133.59 19.08 132.72 19.32 131.79 19.32C129.06 19.32 127.97 17.56 127.97 15.78V14.08H127.98ZM132.81 14.11V13.9C132.81 13.16 132.52 12.44 131.53 12.44C130.54 12.44 130.23 13.18 130.23 13.9V14.11H132.81Z" fill="#3A3A3A"/>
<path d="M140.08 11.85C140.08 9.19 141.7 7.71 144.25 7.71C145.37 7.71 146.11 7.84 146.72 7.98C147.26 8.12 147.43 8.41 147.31 8.91L147.23 9.29C147.13 9.72 146.75 9.93 146.3 9.82C145.88 9.74 145.42 9.63 144.57 9.63C143.26 9.63 142.45 10.19 142.45 12.02V15C142.45 16.83 143.25 17.39 144.57 17.39C145.28 17.39 145.69 17.29 146.17 17.17V14.2C146.17 13.73 146.41 13.41 146.88 13.38L147.73 13.32C148.19 13.29 148.42 13.58 148.42 14.04V17.86C148.42 18.32 148.07 18.73 147.63 18.84C146.92 19.02 145.72 19.32 144.25 19.32C141.7 19.32 140.08 17.86 140.08 15.18V11.85Z" fill="#164463"/>
<path d="M150.28 11.53C150.28 11.07 150.58 10.76 151.05 10.76H151.76C152.22 10.76 152.53 11.06 152.53 11.53V16.21C152.53 17.11 152.8 17.43 153.44 17.43C153.98 17.43 154.43 17.19 154.91 16.71V11.53C154.91 11.07 155.21 10.76 155.68 10.76H156.39C156.85 10.76 157.16 11.06 157.16 11.53V18.34C157.16 18.8 156.86 19.11 156.39 19.11H156.04C155.51 19.11 155.22 19 155.17 18.53L155.15 18.39C154.48 19.02 153.69 19.32 152.95 19.32C151.23 19.32 150.27 18.28 150.27 16.47V11.53H150.28Z" fill="#164463"/>
<path d="M158.97 8.42C158.97 7.73 159.51 7.2 160.24 7.2C160.97 7.2 161.51 7.73 161.51 8.42C161.51 9.11 160.97 9.64 160.24 9.64C159.51 9.64 158.97 9.11 158.97 8.42ZM159.11 11.53C159.11 11.07 159.41 10.76 159.88 10.76H160.59C161.05 10.76 161.36 11.06 161.36 11.53V18.34C161.36 18.8 161.06 19.11 160.59 19.11H159.88C159.42 19.11 159.11 18.81 159.11 18.34V11.53Z" fill="#164463"/>
<path d="M163.07 14.03C163.07 11.82 164.24 10.55 166.13 10.55C166.77 10.55 167.33 10.74 167.93 11.26V8.25C167.93 7.79 168.23 7.48 168.7 7.48H169.41C169.87 7.48 170.18 7.78 170.18 8.25V18.35C170.18 18.81 169.92 19.12 169.46 19.12H168.96C168.5 19.12 168.22 19.02 168.17 18.56L168.15 18.43C167.48 19.06 166.87 19.33 166.13 19.33C164.24 19.33 163.07 18.05 163.07 15.85V14.04V14.03ZM167.93 16.72V13.16C167.55 12.78 167.06 12.44 166.5 12.44C165.65 12.44 165.35 13 165.35 14.28V15.58C165.35 16.86 165.65 17.42 166.5 17.42C167.04 17.42 167.46 17.13 167.93 16.71V16.72Z" fill="#164463"/>
<path d="M171.89 14.08C171.89 12.25 173.16 10.55 175.42 10.55C177.68 10.55 178.96 12.33 178.96 14.08V15.23C178.96 15.47 178.77 15.65 178.54 15.65H174.13V15.78C174.13 16.47 174.27 17.43 175.69 17.43C176.44 17.43 177.02 17.29 177.31 17.22C177.79 17.11 178.14 17.24 178.27 17.73L178.35 18.03C178.46 18.46 178.29 18.83 177.82 18.98C177.5 19.08 176.63 19.32 175.7 19.32C172.97 19.32 171.88 17.56 171.88 15.78V14.08H171.89ZM176.72 14.11V13.9C176.72 13.16 176.43 12.44 175.44 12.44C174.45 12.44 174.14 13.18 174.14 13.9V14.11H176.72Z" fill="#164463"/>
<defs>
<linearGradient id="paint0_linear_1_25" x1="10.59" y1="2.31" x2="10.59" y2="24.71" gradientUnits="userSpaceOnUse">
<stop stop-color="#4587A4"/>
<stop offset="0.406141" stop-color="#267AAC"/>
<stop offset="0.91" stop-color="#0069B5"/>
<stop offset="1" stop-color="#0061AD"/>
</linearGradient>
<linearGradient id="paint1_linear_1_25" x1="10.37" y1="7.91" x2="10.37" y2="19.11" gradientUnits="userSpaceOnUse">
<stop stop-color="#97D9F6"/>
<stop offset="0.92" stop-color="#0F80CC"/>
<stop offset="1" stop-color="#0F80CC"/>
</linearGradient>
<linearGradient id="paint2_linear_1_25" x1="10.16" y1="7.91" x2="10.16" y2="19.11" gradientUnits="userSpaceOnUse">
<stop stop-color="#97D9F6"/>
<stop offset="0.92" stop-color="#0F80CC"/>
<stop offset="1" stop-color="#0F80CC"/>
</linearGradient>
<linearGradient id="paint3_linear_1_25" x1="11.52" y1="7.91" x2="11.52" y2="19.11" gradientUnits="userSpaceOnUse">
<stop stop-color="#65A7C4"/>
<stop offset="0.92" stop-color="#0F80CC"/>
<stop offset="1" stop-color="#0F80CC"/>
</linearGradient>
</defs>
</svg>
